<svg xmlns="http://www.w3.org/2000/svg" version="1.1" xmlns:xlink="http://www.w3.org/1999/xlink" xmlns:svgjs="http://svgjs.dev/svgjs" width="1000" height="1000" viewBox="0 0 1000 1000"><rect width="1000" height="1000" fill="#282634"></rect><g transform="matrix(0.7,0,0,0.7,149.57575757575756,282.1265587044535)"><svg viewBox="0 0 396 247" data-background-color="#282634" preserveAspectRatio="xMidYMid meet" height="623" width="1000" xmlns="http://www.w3.org/2000/svg" xmlns:xlink="http://www.w3.org/1999/xlink"><g id="tight-bounds" transform="matrix(1,0,0,1,0.2400000000000091,-0.09999999999999432)"><svg viewBox="0 0 395.52 247.2" height="247.2" width="395.52"><g><svg></svg></g><g><svg viewBox="0 0 395.52 247.2" height="247.2" width="395.52"><g transform="matrix(1,0,0,1,75.54432000000001,87.76006439263804)"><svg viewBox="0 0 244.43135999999996 71.67987121472392" height="71.67987121472392" width="244.43135999999996"><g><svg viewBox="0 0 244.43135999999996 71.67987121472392" height="71.67987121472392" width="244.43135999999996"><g><svg viewBox="0 0 244.43136 71.67987121472393" height="71.67987121472392" width="244.43135999999996"><g><svg viewBox="0 0 244.43136 71.67987121472393" height="71.67987121472393" width="244.43136"><g id="textblocktransform"><svg viewBox="0 0 244.43136 71.67987121472393" height="71.67987121472393" width="244.43136" id="textblock"><g><svg viewBox="0 0 244.43136 71.67987121472393" height="71.67987121472393" width="244.43136"><g transform="matrix(1,0,0,1,0,0)"><svg width="244.43136" viewBox="3.0299999713897705 -35.0099983215332 119.3800048828125 35.0099983215332" height="71.67987121472393" data-palette-color="#ff4057"><path d="M38.04-31.81L38.04 0 31.69 0 31.69-8.59 9.38-8.59 9.38 0 3.03 0 3.03-17.5Q3.03-21.34 4.35-24.56 5.66-27.78 8.01-30.1 10.35-32.42 13.55-33.72 16.75-35.01 20.53-35.01L20.53-35.01 34.84-35.01Q35.5-35.01 36.08-34.77 36.67-34.52 37.11-34.08 37.55-33.64 37.79-33.06 38.04-32.47 38.04-31.81L38.04-31.81ZM9.38-17.5L9.38-14.94 31.69-14.94 31.69-28.66 20.53-28.66Q20.24-28.66 19.3-28.58 18.36-28.49 17.13-28.15 15.89-27.81 14.53-27.1 13.16-26.39 12.01-25.15 10.86-23.9 10.12-22.03 9.38-20.17 9.38-17.5L9.38-17.5ZM80.3-23.24L80.3-20.36Q80.3-18.19 79.76-16.48 79.22-14.77 78.31-13.46 77.39-12.16 76.19-11.23 75-10.3 73.69-9.72 72.39-9.13 71.05-8.86 69.72-8.59 68.55-8.59L68.55-8.59 54.2-8.59 54.2-14.94 68.55-14.94Q69.77-15.04 70.76-15.44 71.75-15.84 72.46-16.53 73.17-17.21 73.56-18.18 73.95-19.14 73.95-20.36L73.95-20.36 73.95-23.24Q73.83-24.44 73.44-25.44 73.04-26.44 72.37-27.15 71.7-27.86 70.75-28.26 69.8-28.66 68.55-28.66L68.55-28.66 54.25-28.66Q52.98-28.66 52.32-28 51.66-27.34 51.66-26.1L51.66-26.1 51.66 0 45.31 0 45.31-26.1Q45.31-28.54 46.2-30.25 47.09-31.96 48.42-33.01 49.75-34.06 51.32-34.53 52.88-35.01 54.2-35.01L54.2-35.01 68.55-35.01Q70.7-35.01 72.41-34.46 74.12-33.91 75.42-33 76.73-32.08 77.65-30.88 78.56-29.69 79.16-28.38 79.76-27.08 80.03-25.74 80.3-24.41 80.3-23.24L80.3-23.24ZM104.41-17.5L122.41 0 113.4 0 99.12-14.31 94.65-14.31 94.65-20.7 99.12-20.7 113.4-35.01 122.41-35.01 104.41-17.5ZM92.11-35.01L92.11 0 85.76 0 85.76-35.01 92.11-35.01Z" opacity="1" transform="matrix(1,0,0,1,0,0)" fill="#ff4057" class="undefined-text-0" data-fill-palette-color="primary" id="text-0"></path></svg></g></svg></g></svg></g></svg></g><g></g></svg></g></svg></g></svg></g><g><path d="M87.52 70.838A122.216 122.216 0 0 1 308 70.838L301.536 70.838A115.752 115.752 0 0 0 93.984 70.838L87.52 70.838M87.52 176.362A122.216 122.216 0 0 0 308 176.362L301.536 176.362A115.752 115.752 0 0 1 93.984 176.362L87.52 176.362" fill="#ff4057" stroke="transparent" data-fill-palette-color="tertiary"></path></g></svg></g><defs></defs></svg><rect width="395.52" height="247.2" fill="none" stroke="none" visibility="hidden"></rect></g></svg></g></svg>